/* XPM */
static char * addressbook20mask_xpm[] = {
/* columns rows colors chars-per-pixel */
"20 20 2 1",
"  c #000000",
". c #FFFFFF",
/* pixels */
"                    ",
"                    ",
"  ....... ......    ",
"..................  ",
"..................  ",
"..................  ",
"..................  ",
"..................  ",
"..................  ",
"..................  ",
"..................  ",
"..................  ",
"..................  ",
"..................  ",
"..................  ",
"..................  ",
"..................  ",
"..................  ",
"                    ",
"                    "
};
