/* XPM */
static char * send16masknoshadow_xpm[] = {
/* columns rows colors chars-per-pixel */
"16 16 2 1",
"  c #000000",
". c #FFFFFF",
/* pixels */
"       ..       ",
"       ...      ",
"       ....     ",
"       .....    ",
".............   ",
"..............  ",
"............... ",
"................",
"............... ",
"..............  ",
".............   ",
"       .....    ",
"       ....     ",
"       ...      ",
"       ..       ",
"                "
};
